<svg id="Layer_1" data-name="Layer 1" xmlns="http://www.w3.org/2000/svg" viewBox="0 0 500 116.3"><defs><style>.cls-1{fill:#ef4126;}</style></defs><g id="Symbols"><g id="Main-Navigation"><g id="Logo"><g id="Combined-Shape"><path class="cls-1" d="M308.18,509.13c5.73,0,16,10.31,18.71,13a11.17,11.17,0,0,1,2.88,11.51c-2,6.09-18.71,21.6-21.59,24.48-2.88-2.88-19.57-18.39-21.59-24.48a11.2,11.2,0,0,1,2.87-11.51l.62-.61C293.49,518.15,302.82,509.13,308.18,509.13Zm199.53-41.6c15.41,0,28.33,12.05,28.33,32.55,0,19.75-13.3,32.55-29.69,32.55a24.74,24.74,0,0,1-20-9.32v32.92H470.7v-87h15.65v8.82C490.45,472.13,498.28,467.53,507.71,467.53Zm74.19,0c15.4,0,28.32,12.05,28.32,32.55,0,19.75-13.29,32.55-29.69,32.55a24.75,24.75,0,0,1-20-9.32v32.92H544.88v-87h15.65v8.82C564.64,472.13,572.46,467.53,581.9,467.53Zm-160.2,0c9.82,0,15.65,3.23,19.5,8.7v-7h15.66v61.61H441.2v-7.94c-3.6,6-9.56,9.69-19,9.69-16.9,0-29.94-12-29.94-32.55S407.17,467.53,421.7,467.53Zm229.39-.74c18.72,0,30.65,13.83,30.65,31.16h0v5.53H633.41c1,9.54,7.67,15.57,17.08,15.57,8.67,0,13.7-4.39,17.22-11.42h0l12.17,7c-5.53,11.31-14.45,18-30.06,18-17,0-32-13.32-32-32.92S632,466.79,651.09,466.79Zm77.3.74c13.29,0,21.61,8.45,21.61,21.37v42H734.35V495.36c0-8.08-3.73-13.17-12.55-13.17-8.32,0-14.28,7-14.28,17.39v31.3H691.86V469.27h15.66v9.94C712.11,472.13,719.44,467.53,728.39,467.53ZM341.86,478.41c6.09,2,21.6,18.71,24.48,21.59-2.88,2.88-18.39,19.56-24.48,21.59a11.17,11.17,0,0,1-11.51-2.88c-2.73-2.72-13-13-13-18.71s10.3-16,13-18.72A11.2,11.2,0,0,1,341.86,478.41ZM286,481.28c2.72,2.73,13,13,13,18.72s-10.31,16-13,18.71a11.17,11.17,0,0,1-11.51,2.88c-6.09-2-21.6-18.71-24.48-21.59,2.88-2.88,18.39-19.57,24.48-21.59A11.2,11.2,0,0,1,286,481.28Zm139.19.91c-9.94,0-17,7.46-17,17.89s7.08,17.89,17,17.89,17-7.46,17-17.89S435.12,482.19,425.18,482.19Zm77.56,0c-10.06,0-17.38,7.83-17.38,17.89S492.68,518,502.74,518s17.4-7.83,17.4-17.89S512.81,482.19,502.74,482.19Zm74.19,0c-10.06,0-17.39,7.83-17.39,17.89S566.87,518,576.93,518s17.39-7.83,17.39-17.89S587,482.19,576.93,482.19Zm73.56-3.33c-8.53,0-14.69,5.65-17.08,13.07h33.42C665.32,483.88,659.55,478.86,650.49,478.86Zm-342.31-37c2.88,2.88,19.56,18.39,21.59,24.47a11.16,11.16,0,0,1-2.88,11.51c-2.72,2.73-13,13-18.71,13s-16-10.31-18.72-13a11.19,11.19,0,0,1-2.87-11.51C288.61,460.24,305.3,444.73,308.18,441.85Z" transform="translate(-250 -441.85)"/></g></g></g></g></svg>